<svg width="38" height="39" viewBox="0 0 38 39" fill="none" xmlns="http://www.w3.org/2000/svg">
<path d="M26.1495 25.2299L25.5349 25.8031L24.3144 24.6567L24.929 24.0835C29.8224 19.5197 26.364 11.6222 19.3862 11.6222C17.3735 11.628 15.4406 12.3567 13.9889 13.6568C12.5372 14.957 11.6783 16.7288 11.5906 18.6041C11.5029 20.4794 12.1932 22.3142 13.518 23.7273C14.8428 25.1404 16.7004 26.0232 18.7049 26.1924L17.3221 24.9027L18.5513 23.7564L22.0648 27.0332L18.5513 30.3101L17.3221 29.1637L18.7716 27.8119C16.3274 27.6218 14.0547 26.5634 12.4233 24.8553C10.7918 23.1472 9.92607 20.92 10.005 18.6336C10.0838 16.3473 11.1013 14.1765 12.8472 12.5698C14.593 10.9631 16.9339 10.0431 19.3862 10C27.9062 10 32.1416 19.6495 26.1495 25.2299Z" fill="white"/>
<path d="M16.7045 15.1818H17.5455L19.5227 20.0114H19.5909L21.5682 15.1818H22.4091V21H21.75V16.5795H21.6932L19.875 21H19.2386L17.4205 16.5795H17.3636V21H16.7045V15.1818Z" fill="white"/>
</svg>
